<?xml version="1.0" standalone="no"?>
<!DOCTYPE svg PUBLIC "-//W3C//DTD SVG 20010904//EN"
 "http://www.w3.org/TR/2001/REC-SVG-20010904/DTD/svg10.dtd">
<svg version="1.0" xmlns="http://www.w3.org/2000/svg"
 width="500.000000pt" height="500.000000pt" viewBox="0 0 500.000000 500.000000"
 preserveAspectRatio="xMidYMid meet">

<g transform="translate(0.000000,500.000000) scale(0.100000,-0.100000)"
fill="#000000" stroke="none">
<path d="M1455 4311 c-69 -18 -145 -80 -145 -117 0 -28 -31 -75 -63 -94 -28
-17 -51 -20 -176 -20 -167 0 -208 -13 -251 -77 -23 -34 -25 -45 -25 -152 0
-110 2 -119 30 -170 66 -120 232 -245 396 -298 46 -14 86 -28 88 -30 5 -4 -30
-134 -76 -278 -46 -145 -62 -266 -63 -457 0 -210 15 -339 55 -478 71 -243 82
-287 93 -346 12 -62 17 -350 6 -378 -3 -9 -33 -30 -66 -48 -118 -63 -198 -185
-198 -302 0 -49 3 -57 32 -81 l32 -27 255 7 c222 6 260 10 286 26 53 32 47 13
130 444 71 367 113 579 125 630 5 22 18 81 30 130 44 188 112 418 159 540 22
56 77 158 103 189 25 31 35 36 72 36 23 0 46 -4 52 -8 5 -4 27 -14 49 -21 22
-8 59 -27 83 -42 24 -16 46 -29 49 -29 3 0 42 -33 87 -72 86 -77 85 -76 130
-126 l30 -32 -141 -135 c-183 -175 -334 -363 -410 -510 -26 -49 -92 -218 -105
-265 -5 -19 -14 -51 -19 -70 -46 -157 -69 -401 -50 -535 10 -74 14 -83 48
-113 l38 -34 535 7 c586 8 567 5 614 68 20 27 21 40 19 199 -4 487 -117 944
-312 1263 l-43 70 64 55 c151 130 202 194 233 293 34 108 136 236 282 350 13
10 41 48 62 85 41 69 135 170 144 155 3 -4 -1 -32 -9 -62 -7 -29 -11 -57 -9
-61 3 -5 29 -11 58 -15 73 -9 149 -46 179 -86 14 -19 40 -63 58 -99 18 -36 48
-87 67 -114 l35 -48 -29 -46 c-37 -60 -70 -83 -133 -93 -137 -22 -198 -161
-156 -361 23 -110 21 -234 -5 -311 -11 -34 -54 -123 -94 -197 -135 -247 -165
-332 -165 -469 0 -102 31 -205 89 -289 42 -62 47 -66 126 -76 51 -7 87 -46 83
-88 l-3 -29 -193 -2 c-179 -2 -195 -3 -208 -21 -18 -26 -18 -39 4 -66 20 -25
60 -27 309 -15 142 7 153 9 174 31 34 37 38 128 9 190 -26 53 -89 99 -151 109
-71 12 -121 114 -122 250 0 109 19 164 113 335 113 202 157 297 169 365 16 84
14 214 -5 302 -17 82 -12 153 12 187 7 11 37 26 66 33 81 21 168 98 212 188
40 84 40 94 -5 160 -22 32 -60 101 -84 152 -51 106 -107 168 -185 205 -55 26
-57 31 -39 119 20 99 -28 162 -106 140 -86 -23 -278 -192 -325 -284 -15 -31
-60 -81 -127 -144 -125 -115 -211 -232 -243 -329 -19 -56 -35 -81 -84 -133
-34 -35 -82 -81 -108 -103 l-48 -40 -87 89 c-91 91 -191 160 -348 238 -68 34
-89 40 -145 40 -53 0 -71 -4 -95 -23 -65 -52 -143 -182 -195 -327 -139 -392
-260 -931 -321 -1430 -12 -106 -28 -190 -36 -204 l-15 -23 -209 4 c-117 2
-213 8 -219 14 -13 13 38 120 76 158 16 16 52 44 81 62 28 19 54 42 57 51 14
50 28 279 22 361 -8 110 -38 277 -65 355 -95 275 -88 694 16 989 41 119 66
208 83 301 12 64 11 71 -7 95 -22 29 -35 35 -128 51 -121 22 -287 127 -352
225 -30 44 -33 55 -33 127 0 67 3 80 19 89 11 5 83 10 162 10 123 0 148 3 185
20 56 28 120 98 133 148 17 63 28 67 170 66 110 0 136 -4 204 -27 128 -44 171
-83 227 -202 115 -247 138 -512 52 -609 -51 -58 -208 -77 -272 -33 -53 36 -75
88 -74 182 0 134 61 273 165 377 49 49 57 61 50 80 -12 34 -53 35 -96 1 -53
-41 -133 -146 -166 -217 -68 -145 -78 -311 -26 -412 58 -113 173 -164 321
-143 236 33 324 244 244 584 -24 106 -55 189 -103 285 -64 127 -130 181 -284
231 -84 28 -113 32 -226 35 -71 2 -143 0 -160 -5z m1448 -1874 c197 -338 307
-776 307 -1230 0 -123 -1 -128 -22 -138 -15 -6 -194 -7 -528 -2 l-505 8 -9 60
c-12 75 7 293 34 408 52 222 170 442 348 650 92 106 305 307 326 307 7 0 28
-28 49 -63z"/>
</g>
</svg>
